<?xml version="1.0" encoding="utf-8"?>
<!-- Generator: Adobe Illustrator 18.1.1, SVG Export Plug-In . SVG Version: 6.00 Build 0)  -->
<svg version="1.1" id="Layer_1" xmlns="http://www.w3.org/2000/svg" xmlns:xlink="http://www.w3.org/1999/xlink" x="0px" y="0px"
	 viewBox="0 0 300 150" enable-background="new 0 0 300 150" xml:space="preserve">
<path fill="#BF8C3D" d="M0,23.4c2.1-0.5,4.2-1,6.2-1.5c6.3-1.5,10.2-5.4,12.1-11.5C19,8.2,19.5,6,20,3.7c0.1-0.4,0.2-0.6,0.7-0.6
	c0.2,0,0.4,0,0.6,0c85.6,0,171.2,0,256.8,0c0.4,0,0.7,0,1.1,0c0.3,1.6,0.4,3.1,0.8,4.7c1.1,5.1,3.4,9.3,7.9,12.1
	c2.9,1.8,6.2,2.7,9.5,3.2c0.2,0,0.5,0.1,0.7,0.1c1.3,0.2,1.3,0.2,1.3,1.6c0,33.6,0,67.1,0,100.7c0,1.4,0.3,1.2-1.3,1.5
	c-8.9,1.8-16.4,7.2-18.4,16.9c-0.2,0.8-0.3,1.6-0.4,2.4c0,0.4-0.2,0.6-0.6,0.6c-0.2,0-0.4,0-0.6,0c-85.5,0-171,0-256.6,0
	c-0.4,0-0.8,0-1.2,0c-0.2-1.4-0.3-2.6-0.5-3.9c-1.2-7.3-5.5-12-12.3-14.4c-2.4-0.9-5-1.4-7.5-2.1C0,92.3,0,57.9,0,23.4z M75.5,32.9
	c0,27.6,0,55.2,0,82.8c6.2,0,12.4,0,18.8,0c0-17.8,0-35.6,0-53.4c0.2,0.1,0.2,0.2,0.3,0.3c0.7,5,1.4,10.1,2.2,15.1
	c0.9,6.5,1.9,13,2.8,19.5c0.9,6,1.7,12,2.6,17.9c0,0.2,0.4,0.5,0.6,0.5c4.1,0,8.3,0,12.4,0c0.4,0,0.6-0.1,0.6-0.5
	c0.4-3.2,0.8-6.3,1.3-9.5c0.8-6.2,1.7-12.4,2.5-18.5c0.8-6.2,1.7-12.4,2.5-18.5c0.3-2.5,0.7-5,1-7.5c0.1,0,0.2,0,0.2,0
	c0,18.2,0,36.3,0,54.5c6.4,0,12.6,0,18.7,0c0-27.6,0-55.2,0-82.8c-9.4,0-18.6,0-28,0c-1.6,12.7-3.2,25.3-4.9,37.9
	c-0.1,0-0.1,0-0.2,0c-1.8-12.6-3.7-25.3-5.5-37.9C94,32.9,84.8,32.9,75.5,32.9z M150.6,115.7c1.2,0,2.4,0,3.5,0c9,0,17.9,0,26.9-0.1
	c3.3,0,6.6-0.2,9.7-1.2c5.1-1.6,8.2-4.9,8.9-10.2c0.4-2.8,0.6-5.6,0.6-8.4c0.1-12,0.1-24,0.1-36c0-3.7-0.2-7.4-0.4-11.1
	c-0.1-2.3-0.6-4.5-1.7-6.6c-2.4-4.8-6.5-7.1-11.6-8.2c-4.3-0.9-8.8-1.1-13.2-1.1c-7.4-0.1-14.7-0.1-22.1-0.1c-0.3,0-0.6,0-0.9,0
	C150.6,60.5,150.6,88,150.6,115.7z M207.8,32.8c0,27.6,0,55.2,0,82.8c0.3,0,0.6,0,0.9,0c5.8,0,11.6,0,17.4,0c0.7,0,1-0.2,1.2-0.9
	c0.3-1.4,0.7-2.8,1.1-4.3c0.3,0.3,0.4,0.5,0.6,0.7c4.6,5.2,11.2,7.1,17.5,4.7c4.3-1.6,7.4-4.5,8.2-9.2c0.4-2.3,0.7-4.7,0.7-7.1
	c0.1-11.5,0.1-22.9,0-34.4c0-2.5,0-5-0.2-7.5c-0.3-4.2-2.2-7.3-5.9-9.3c-1.9-1-3.9-1.5-6-1.7c-4.7-0.5-9.1,0.5-12.8,3.6
	c-0.7,0.6-1.4,1.3-2.3,2.1c0-6.6,0-13.1,0-19.6C221.5,32.8,214.7,32.8,207.8,32.8z M45.3,115.6c7.2,0,14.3,0,21.4,0
	c0-27.6,0-55.2,0-82.8c-7.2,0-14.3,0-21.4,0C45.3,60.5,45.3,88,45.3,115.6z"/>
<path fill="#252525" d="M75.5,32.9c9.3,0,18.5,0,27.8,0c1.8,12.7,3.7,25.3,5.5,37.9c0.1,0,0.1,0,0.2,0c1.6-12.6,3.2-25.2,4.9-37.9
	c9.3,0,18.6,0,28,0c0,27.6,0,55.1,0,82.8c-6.2,0-12.4,0-18.7,0c0-18.2,0-36.3,0-54.5c-0.1,0-0.2,0-0.2,0c-0.3,2.5-0.7,5-1,7.5
	c-0.8,6.2-1.7,12.4-2.5,18.5c-0.8,6.2-1.7,12.4-2.5,18.5c-0.4,3.2-0.9,6.3-1.3,9.5c-0.1,0.4-0.2,0.5-0.6,0.5c-4.1,0-8.3,0-12.4,0
	c-0.2,0-0.5-0.3-0.6-0.5c-0.9-6-1.7-12-2.6-17.9c-0.9-6.5-1.9-13-2.8-19.5c-0.7-5-1.4-10.1-2.2-15.1c0-0.1-0.1-0.2-0.3-0.3
	c0,17.8,0,35.6,0,53.4c-6.3,0-12.5,0-18.8,0C75.5,88,75.5,60.5,75.5,32.9z"/>
<path fill="#252525" d="M150.6,115.7c0-27.6,0-55.2,0-82.8c0.3,0,0.6-0.1,0.9,0c7.4,0,14.7,0,22.1,0.1c4.4,0.1,8.8,0.2,13.2,1.1
	c5,1,9.1,3.4,11.6,8.2c1.1,2.1,1.6,4.3,1.7,6.6c0.2,3.7,0.4,7.4,0.4,11.1c0,12,0,24-0.1,36c0,2.8-0.3,5.6-0.6,8.4
	c-0.7,5.4-3.9,8.7-8.9,10.2c-3.2,1-6.4,1.2-9.7,1.2c-9,0.1-17.9,0.1-26.9,0.1C153,115.7,151.8,115.7,150.6,115.7z M172.2,46.8
	c0,18.4,0,36.5,0,54.8c1.1-0.1,2-0.2,3-0.4c1.8-0.3,2.9-1.3,3.1-3.2c0.2-2.3,0.5-4.6,0.5-6.9c0.1-12,0-24,0-36
	c0-1.6-0.1-3.1-0.3-4.7c-0.2-1.5-1-2.7-2.5-3.1C174.8,47.1,173.5,47,172.2,46.8z"/>
<path fill="#252525" d="M207.8,32.8c6.8,0,13.7,0,20.6,0c0,6.5,0,12.9,0,19.6c0.8-0.8,1.5-1.5,2.3-2.1c3.7-3.2,8-4.1,12.8-3.6
	c2.1,0.2,4.1,0.7,6,1.7c3.7,2,5.6,5.2,5.9,9.3c0.2,2.5,0.2,5,0.2,7.5c0,11.5,0,22.9,0,34.4c0,2.4-0.3,4.7-0.7,7.1
	c-0.8,4.7-3.9,7.6-8.2,9.2c-6.3,2.4-12.9,0.5-17.5-4.7c-0.2-0.2-0.3-0.4-0.6-0.7c-0.4,1.5-0.8,2.9-1.1,4.3c-0.1,0.7-0.4,0.9-1.2,0.9
	c-5.8,0-11.6,0-17.4,0c-0.3,0-0.6,0-0.9,0C207.8,88,207.8,60.5,207.8,32.8z M228.4,81.5C228.4,81.5,228.4,81.5,228.4,81.5
	c0,5.6,0,11.1,0,16.7c0,1.5,0.2,3.1,0.5,4.6c0.3,1.4,1.3,2,2.8,2c1.4,0,2.4-0.7,2.6-2.1c0.3-1.5,0.4-3.1,0.4-4.6c0-11,0-22,0-32.9
	c0-1.4-0.2-2.9-0.5-4.3c-0.3-1.6-1.4-2.4-3.1-2.3c-1.5,0.1-2.3,0.8-2.5,2.5c-0.2,1.3-0.3,2.7-0.3,4C228.4,70.6,228.4,76,228.4,81.5z
	"/>
<path fill="#252525" d="M45.3,115.6c0-27.6,0-55.2,0-82.8c7.2,0,14.3,0,21.4,0c0,27.6,0,55.2,0,82.8
	C59.6,115.6,52.5,115.6,45.3,115.6z"/>
<path fill="#BF8C3D" d="M172.2,46.8c1.3,0.2,2.6,0.3,3.8,0.5c1.6,0.4,2.3,1.5,2.5,3.1c0.2,1.6,0.3,3.1,0.3,4.7c0,12,0,24,0,36
	c0,2.3-0.3,4.6-0.5,6.9c-0.2,1.9-1.3,2.8-3.1,3.2c-1,0.2-1.9,0.2-3,0.4C172.2,83.3,172.2,65.2,172.2,46.8z"/>
<path fill="#BF8C3D" d="M228.4,81.5c0-5.5,0-10.9,0-16.4c0-1.3,0.1-2.7,0.3-4c0.2-1.7,1-2.4,2.5-2.5c1.7-0.1,2.8,0.6,3.1,2.3
	c0.3,1.4,0.5,2.9,0.5,4.3c0,11,0,22,0,32.9c0,1.5-0.2,3.1-0.4,4.6c-0.2,1.4-1.2,2.1-2.6,2.1c-1.5,0-2.5-0.6-2.8-2
	c-0.3-1.5-0.5-3.1-0.5-4.6C228.4,92.6,228.4,87.1,228.4,81.5C228.4,81.5,228.4,81.5,228.4,81.5z"/>
</svg>
