<?xml version="1.0" encoding="utf-8"?>
<!-- Generator: Adobe Illustrator 18.1.1, SVG Export Plug-In . SVG Version: 6.00 Build 0)  -->
<svg version="1.1" id="Layer_1" xmlns="http://www.w3.org/2000/svg" xmlns:xlink="http://www.w3.org/1999/xlink" x="0px" y="0px"
	 viewBox="2.8 168.7 196.1 65.6" enable-background="new 2.8 168.7 196.1 65.6" xml:space="preserve">
<g>
	<defs>
		<rect id="SVGID_1_" x="3.5" y="192.3" width="93" height="18.5"/>
	</defs>
	<clipPath id="SVGID_2_">
		<use xlink:href="#SVGID_1_"  overflow="visible"/>
	</clipPath>
	<rect x="1.5" y="190.8" clip-path="url(#SVGID_2_)" fill="#EFE800" width="47.7" height="21.8"/>
</g>
<g>
	<defs>
		<rect id="SVGID_3_" x="3.5" y="215.4" width="93" height="18.5"/>
	</defs>
	<clipPath id="SVGID_4_">
		<use xlink:href="#SVGID_3_"  overflow="visible"/>
	</clipPath>
	<rect x="1.4" y="214.2" clip-path="url(#SVGID_4_)" fill="#EF1818" width="70.9" height="22.2"/>
</g>
<g>
	<defs>
		<rect id="SVGID_5_" x="105.5" y="169.1" width="93" height="18.5"/>
	</defs>
	<clipPath id="SVGID_6_">
		<use xlink:href="#SVGID_5_"  overflow="visible"/>
	</clipPath>
	<rect x="102.6" y="163.9" clip-path="url(#SVGID_6_)" fill="#1FB23B" width="40.1" height="26.2"/>
</g>
<g>
	<defs>
		<rect id="SVGID_7_" x="105.5" y="192.3" width="93" height="18.5"/>
	</defs>
	<clipPath id="SVGID_8_">
		<use xlink:href="#SVGID_7_"  overflow="visible"/>
	</clipPath>
	<rect x="103.6" y="190.7" clip-path="url(#SVGID_8_)" fill="#1FB23B" width="29.1" height="21.7"/>
</g>
<g>
	<defs>
		<rect id="SVGID_9_" x="105.5" y="215.4" width="93" height="18.5"/>
	</defs>
	<clipPath id="SVGID_10_">
		<use xlink:href="#SVGID_9_"  overflow="visible"/>
	</clipPath>
	<rect x="103.7" y="213.6" clip-path="url(#SVGID_10_)" fill="#EF1818" width="70.5" height="22.2"/>
</g>
<text transform="matrix(1.0064 0 0 1 7.6678 206.8223)" fill="#2B2321" font-family="'ArialMT'" font-size="11.5925">Sexual</text>
<text transform="matrix(1.0064 0 0 1 7.5893 229.3633)" fill="#2B2321" font-family="'ArialMT'" font-size="11.5925">Violence</text>
<text transform="matrix(1.0064 0 0 1 110.2558 182.7452)" fill="#2B2321" font-family="'ArialMT'" font-size="11.5925">Profanity</text>
<text transform="matrix(1.0064 0 0 1 110.2558 206.8224)" fill="#2B2321" font-family="'ArialMT'" font-size="11.5925">Substance</text>
<text transform="matrix(1.0064 0 0 1 110.0702 229.3633)" fill="#2B2321" font-family="'ArialMT'" font-size="11.5925">Frightening</text>
<rect x="3.5" y="192.1" fill="none" stroke="#2B2321" stroke-width="0.25" stroke-miterlimit="10" width="93" height="18.7"/>
<rect x="3.5" y="215.3" fill="none" stroke="#2B2321" stroke-width="0.25" stroke-miterlimit="10" width="93" height="18.7"/>
<rect x="105.5" y="169.2" fill="none" stroke="#2B2321" stroke-width="0.25" stroke-miterlimit="10" width="93" height="18.7"/>
<rect x="105.5" y="192.2" fill="none" stroke="#2B2321" stroke-width="0.25" stroke-miterlimit="10" width="93" height="18.7"/>
<rect x="105.5" y="215.2" fill="none" stroke="#2B2321" stroke-width="0.25" stroke-miterlimit="10" width="93" height="18.7"/>
<rect x="3.5" y="169.2" fill="#2B2321" stroke="#2B2321" stroke-width="0.25" stroke-miterlimit="10" width="93" height="18.7"/>
<text transform="matrix(1.0064 0 0 1 30.897 182.7451)" fill="#FFFFFF" font-family="'ArialMT'" font-size="11.5925">PG-13</text>
</svg>
