<?xml version="1.0" encoding="utf-8"?>
<!-- Generator: Adobe Illustrator 18.1.1, SVG Export Plug-In . SVG Version: 6.00 Build 0)  -->
<svg version="1.1" id="Layer_1" xmlns="http://www.w3.org/2000/svg" xmlns:xlink="http://www.w3.org/1999/xlink" x="0px" y="0px"
	 viewBox="0 0 436.3 75" enable-background="new 0 0 436.3 75" xml:space="preserve">
<polygon fill="#BF8C3D" points="39.1,0 51.2,24.7 78.3,28.6 58.7,47.9 63.3,75 39.1,62.2 15,75 19.6,47.9 0,28.6 27.1,24.7 "/>
<polygon fill="#BF8C3D" points="127.5,0 139.6,24.7 166.6,28.6 147.1,47.9 151.7,75 127.5,62.2 103.3,75 107.9,47.9 88.4,28.6 
	115.4,24.7 "/>
<polygon fill="#BF8C3D" points="216,0 228.1,24.7 255.1,28.6 235.6,47.9 240.2,75 216,62.2 191.8,75 196.4,47.9 176.9,28.6 
	203.9,24.7 "/>
<polygon fill="#BF8C3D" points="306.1,0 318.2,24.7 345.3,28.6 325.7,47.9 330.3,75 306.1,62.2 282,75 286.6,47.9 267,28.6 
	294.1,24.7 "/>
<polygon fill="#BF8C3D" points="397.1,0 409.2,24.7 436.3,28.6 416.7,47.9 421.3,75 397.1,62.2 373,75 377.6,47.9 358,28.6 
	385.1,24.7 "/>
</svg>
